<svg id="レイヤー_1" data-name="レイヤー 1" xmlns="http://www.w3.org/2000/svg" viewBox="0 0 45 44">
  <defs>
    <style>
      .cls-1 {
        fill: #305f88;
      }

      .cls-2 {
        fill: #fff;
      }
    </style>
  </defs>
  <rect class="cls-1" x="361.5" y="194.2" width="45" height="44" rx="6.29" transform="translate(406.5 238.2) rotate(-180)"/>
  <g>
    <path class="cls-2" d="M377.26,212.79h23.62a0,0,0,0,1,0,0v6.81a0,0,0,0,1,0,0H377.26A1.56,1.56,0,0,1,375.7,218v-3.69A1.56,1.56,0,0,1,377.26,212.79Z" transform="translate(415.08 238.2) rotate(-180)"/>
    <path class="cls-2" d="M367.56,215.13l10.76-10.76a1.5,1.5,0,0,1,2.14,0l2.67,2.67a1.51,1.51,0,0,1,0,2.14l-3.61,3.61h7.66a4.82,4.82,0,0,0,0,6.81h-7.66l3.61,3.62a1.51,1.51,0,0,1,0,2.14L380.46,228a1.51,1.51,0,0,1-2.14,0l-10.76-10.76A1.5,1.5,0,0,1,367.56,215.13Z" transform="translate(-361.5 -194.2)"/>
  </g>
</svg>
