<svg id="レイヤー_1" data-name="レイヤー 1" xmlns="http://www.w3.org/2000/svg" viewBox="0 0 45 44">
  <defs>
    <style>
      .cls-1 {
        fill: #305f88;
      }

      .cls-2 {
        fill: #fff;
      }
    </style>
  </defs>
  <rect class="cls-1" width="45" height="44" rx="6.29"/>
  <g>
    <path class="cls-2" d="M7.18,18.6H30.8a0,0,0,0,1,0,0V25.4a0,0,0,0,1,0,0H7.18a1.56,1.56,0,0,1-1.56-1.56V20.15A1.56,1.56,0,0,1,7.18,18.6Z"/>
    <path class="cls-2" d="M400.43,215.13l-10.76-10.76a1.5,1.5,0,0,0-2.14,0L384.86,207a1.51,1.51,0,0,0,0,2.14l3.61,3.61h-7.66a4.82,4.82,0,0,1,0,6.81h7.66l-3.61,3.62a1.51,1.51,0,0,0,0,2.14l2.67,2.67a1.51,1.51,0,0,0,2.14,0l10.76-10.76A1.5,1.5,0,0,0,400.43,215.13Z" transform="translate(-361.5 -194.2)"/>
  </g>
</svg>
